# xmcd
#
# Track frame offsets: 
#        150
#        25589
#        43686
#        62480
#        87524
#        102854
#        128627
#        152266
#        174420
#        193486
#        206544
#
# Disc length: 2967 seconds
#
# Revision: 0
# Processed by: cddbd v1.5.2PL0 Copyright (c) Steve Scherf et al.
# Submitted via: ExactAudioCopy v0.99pb3
#
DISCID=880b950b
DTITLE=Slim Bawb and Gator Bait - Beware!
DYEAR=2006
DGENRE=Blues
TTITLE0=Tony Joe
TTITLE1=Jose Grand Marnier and The Ju Ju Queen
TTITLE2=Got No Guvnor On It
TTITLE3=Isle Of Mystic
TTITLE4=Mojo Moon
TTITLE5=Derrick McQuade
TTITLE6=Hungry Hollow Road
TTITLE7=So Hard To Understand
TTITLE8=When The Hurtin' Begins
TTITLE9=Gator Circus
TTITLE10=Sugar Didn't Show
EXTD=
EXTT0=
EXTT1=
EXTT2=
EXTT3=
EXTT4=
EXTT5=
EXTT6=
EXTT7=
EXTT8=
EXTT9=
EXTT10=
PLAYORDER=
